<?xml version="1.0" standalone="no"?>
<!DOCTYPE svg PUBLIC "-//W3C//DTD SVG 20010904//EN"
 "http://www.w3.org/TR/2001/REC-SVG-20010904/DTD/svg10.dtd">
<svg version="1.0" xmlns="http://www.w3.org/2000/svg"
 width="200.000000pt" height="200.000000pt" viewBox="0 0 200.000000 200.000000"
 preserveAspectRatio="xMidYMid meet">
<metadata>
Created by potrace 1.14, written by Peter Selinger 2001-2017
</metadata>
<g transform="translate(0.000000,200.000000) scale(0.100000,-0.100000)"
fill="#000000" stroke="none">
<path d="M863 1241 c-45 -49 -55 -71 -33 -71 6 0 19 -9 30 -20 29 -29 74 -26
99 6 12 15 21 32 21 39 0 7 -9 24 -21 39 -25 32 -71 35 -96 7z m78 -27 c17
-21 0 -48 -34 -52 -21 -3 -28 2 -33 22 -3 14 -3 30 1 35 10 16 51 13 66 -5z"/>
<path d="M506 1194 c-22 -22 -26 -36 -26 -80 0 -47 -2 -54 -20 -54 -11 0 -20
-4 -20 -10 0 -5 9 -10 20 -10 21 0 40 -27 33 -47 -6 -15 13 -17 22 -3 3 6 17
10 29 10 13 0 29 7 36 16 8 8 22 20 33 26 16 8 23 6 37 -12 10 -13 22 -20 29
-16 7 5 5 15 -9 34 -18 24 -19 31 -8 60 8 19 19 32 30 32 10 0 18 7 18 16 0
10 -7 14 -22 13 -14 -2 -33 7 -50 24 -37 37 -95 38 -132 1z m118 -26 c21 -30
20 -51 -3 -79 l-20 -24 -16 23 c-10 14 -26 22 -45 22 -36 0 -44 13 -29 42 16
31 28 38 66 38 22 0 37 -7 47 -22z m-50 -94 c3 -8 1 -14 -5 -14 -19 0 -50 21
-44 30 7 12 43 1 49 -16z m-19 -56 c-18 -11 -55 7 -55 27 0 12 6 12 35 -2 28
-13 32 -19 20 -25z"/>
<path d="M747 1183 c-17 -4 -21 -25 -4 -24 4 1 16 1 27 1 11 0 20 7 20 15 0
15 -9 17 -43 8z"/>
<path d="M264 1107 c-54 -47 -23 -130 47 -130 24 0 39 8 59 31 15 18 32 32 38
32 7 0 12 5 12 10 0 6 -5 10 -11 10 -6 0 -25 16 -43 35 -39 41 -65 44 -102 12z
m86 -17 c34 -34 20 -80 -27 -95 -25 -7 -73 32 -73 60 0 21 36 55 60 55 11 0
29 -9 40 -20z"/>
<path d="M1160 1055 c0 -43 4 -75 10 -75 6 0 10 32 10 75 0 43 -4 75 -10 75
-6 0 -10 -32 -10 -75z"/>
<path d="M1272 1119 c2 -6 8 -10 13 -10 5 0 11 4 13 10 2 6 -4 11 -13 11 -9 0
-15 -5 -13 -11z"/>
<path d="M975 1103 c-33 -81 -43 -123 -31 -123 8 0 16 7 20 15 3 8 17 15 31
15 16 0 25 -6 25 -15 0 -8 7 -15 15 -15 19 0 19 3 -7 78 -23 62 -40 77 -53 45z
m34 -75 c1 -5 -6 -8 -14 -8 -16 0 -19 9 -8 36 6 16 7 16 14 -2 4 -10 8 -22 8
-26z"/>
<path d="M1090 1106 c0 -8 -6 -17 -12 -20 -10 -5 -10 -7 0 -12 7 -3 12 -24 12
-50 0 -37 3 -44 20 -44 11 0 20 5 20 10 0 6 -4 10 -10 10 -15 0 -12 67 3 74
10 5 10 7 0 12 -7 3 -13 12 -13 20 0 8 -4 14 -10 14 -5 0 -10 -6 -10 -14z"/>
<path d="M1337 1113 c-12 -11 -8 -50 7 -62 11 -9 13 -4 13 29 0 38 -6 48 -20
33z"/>
<path d="M1370 1110 c0 -5 7 -10 15 -10 8 0 15 5 15 10 0 6 -7 10 -15 10 -8 0
-15 -4 -15 -10z"/>
<path d="M1560 1105 c-13 -16 -5 -51 14 -58 10 -4 13 5 12 34 -1 42 -7 47 -26
24z"/>
<path d="M1600 1110 c0 -5 4 -10 9 -10 6 0 13 5 16 10 3 6 -1 10 -9 10 -9 0
-16 -4 -16 -10z"/>
<path d="M1196 1081 c-3 -5 1 -11 9 -15 10 -3 15 -19 15 -46 0 -29 4 -40 15
-40 11 0 15 11 15 39 0 49 -36 91 -54 62z"/>
<path d="M1270 1036 c0 -44 3 -56 16 -56 12 0 14 10 12 52 -4 74 -28 77 -28 4z"/>
<path d="M1430 1078 c0 -7 9 -32 20 -56 20 -44 18 -72 -6 -72 -8 0 -14 -5 -14
-11 0 -6 10 -9 22 -7 18 2 29 19 50 73 31 79 32 85 17 85 -5 0 -17 -17 -26
-37 l-16 -38 -12 34 c-11 35 -35 54 -35 29z"/>
<path d="M1374 1019 c1 -42 7 -47 26 -24 13 16 5 51 -14 58 -10 4 -13 -5 -12
-34z"/>
<path d="M1604 1020 c0 -22 5 -39 11 -37 16 6 17 53 2 66 -12 9 -14 5 -13 -29z"/>
<path d="M697 993 c-4 -3 0 -15 10 -25 15 -17 15 -21 -2 -57 -24 -55 -14 -101
31 -140 27 -25 44 -31 79 -31 117 0 163 152 65 218 -30 20 -43 23 -86 18 -39
-4 -55 -2 -64 9 -14 16 -23 19 -33 8z m164 -53 c28 -16 52 -68 44 -99 -11 -45
-44 -71 -89 -71 -88 1 -128 90 -67 151 31 31 75 38 112 19z"/>
<path d="M1325 990 c3 -5 13 -10 21 -10 8 0 14 5 14 10 0 6 -9 10 -21 10 -11
0 -17 -4 -14 -10z"/>
<path d="M1555 990 c3 -5 13 -10 21 -10 8 0 14 5 14 10 0 6 -9 10 -21 10 -11
0 -17 -4 -14 -10z"/>
<path d="M477 964 c-4 -4 -7 -14 -7 -23 0 -11 3 -12 11 -4 6 6 10 16 7 23 -2
6 -7 8 -11 4z"/>
<path d="M431 911 c-56 -15 -52 -76 5 -76 27 0 29 3 30 43 1 23 -1 42 -5 41
-3 -1 -17 -4 -30 -8z m19 -41 c0 -13 -7 -20 -20 -20 -13 0 -20 7 -20 20 0 13
7 20 20 20 13 0 20 -7 20 -20z"/>
</g>
</svg>
